<?xml version="1.0" encoding="utf-8"?>
<!-- Generator: Adobe Illustrator 27.8.1, SVG Export Plug-In . SVG Version: 6.00 Build 0)  -->
<svg version="1.1" id="Layer_1" xmlns="http://www.w3.org/2000/svg" xmlns:xlink="http://www.w3.org/1999/xlink" x="0px" y="0px"
	 viewBox="0 0 597 619.3" style="enable-background:new 0 0 597 619.3;" xml:space="preserve">
<style type="text/css">
	.st0{fill:#010101;}
</style>
<path class="st0" d="M596.9,87.3c-1.7,11.8-11.1,18.5-17.8,26.9c-20,25.1-38.9,51.1-57.9,77c-31.4,42.6-62.6,85.4-93.8,128.1
	c-18.6,25.4-37.1,50.8-55.8,76.2c-1.2,1.6-1.5,3.3-1.5,5.2c0,30,0,60.1,0.1,90.2c0,2.2-0.6,3.6-2.2,5.1
	c-40.4,40.3-80.7,80.5-120.9,120.9c-1.9,2-3.8,2.8-6.5,2.4c-3.2-0.4-6.5-0.7-9.7-0.5c-2.9,0.2-3.4-0.8-3.4-3.5
	c0-25.1,0-50.2-0.2-75.3c-0.2-46.7-0.6-93.4-0.8-140.1c0-2.4-0.6-4.2-2-6.1c-28.2-38.5-56.4-77-84.6-115.5
	c-27-36.9-54-73.8-81-110.8c-13.6-18.6-27-37.4-42-54.9c-0.8-0.9-1.6-1.9-2.5-2.8C7.7,103.2,2,96,0,86.5v-6.7
	c1.9-3.4,2.2-7.4,4.2-10.8C9.4,59.8,17,53.3,25.7,47.8c22-14,46.7-21.3,71.7-27.5c24.1-6,48.6-9.9,73.3-12.9
	c21.7-2.7,43.4-4.7,65.2-5.9c4.9-0.3,10,0.1,14.9-1.4h66.4c0.9,1.4,2.2,0.7,3.3,0.7c7.7,0.1,15.4,0.2,23.1,0.4
	c22.3,0.5,44.6,1.8,66.8,4.2c25.8,2.8,51.6,6.4,77,11.9c24.9,5.4,49.5,12.1,72.4,23.6c9.6,4.8,18.5,10.5,26.1,18.2
	c5.8,5.9,9.1,12.9,11.1,20.7L596.9,87.3L596.9,87.3z M305.3,141.9c8.7,0,17.4,0,26.1,0c24.5,0.1,48.9-1.3,73.2-4
	c19.3-2.2,38.6-4.6,57.7-8.1c25.2-4.6,50.2-10.1,74.1-19.5c10.6-4.2,21.2-8.7,29.9-16.3c8.6-7.5,8.5-14.7-0.1-22.1
	c-8.7-7.4-19.1-11.9-29.6-16C515,47.5,492.5,42.3,469.8,38c-20.8-4-41.8-6.7-62.8-9c-17.4-2-34.9-3.3-52.3-4.1
	c-16.8-0.8-33.5-0.8-50.3-0.9c-39.4-0.3-78.8,0.8-117.9,5.3c-21.4,2.4-42.7,5.5-63.8,9.8c-21.6,4.4-43,9.6-63.5,17.6
	c-10.1,4-20,8.3-28.3,15.4c-8.3,7.1-8.3,14.5-0.2,21.7c5.5,4.9,12,8.3,18.7,11.4c22.5,10.6,46.4,16.8,70.7,21.7
	c21.1,4.3,42.4,7.3,63.8,9.8c14.7,1.7,29.4,3.3,44.1,4.1C253.6,142.2,279.4,142.3,305.3,141.9L305.3,141.9z"/>
</svg>
