<?xml version="1.0" encoding="UTF-8"?>
<svg id="Layer_1" data-name="Layer 1" xmlns="http://www.w3.org/2000/svg" viewBox="0 0 558.38 17.89">
  <defs>
    <style>
      .cls-1 {
        stroke-width: 0px;
      }
    </style>
  </defs>
  <path class="cls-1" d="m0,8.43c6.23-.46,12.46-1.01,18.69-1.36,60.47-3.4,121.01-3.86,181.56-4.42C291.82,1.8,383.39.88,474.96.09c22.47-.19,44.94-.03,67.42,0,4.77,0,9.36.71,13.23,3.86,3.68,3,3.71,7.01.07,10.01-3.25,2.68-7.1,3.77-11.2,3.8-13.83.1-27.67.18-41.5.08-84.27-.64-168.55-1.27-252.82-2.05-50.4-.46-100.8-.86-151.18-1.9-30.42-.63-60.82-2.44-91.23-3.76-2.58-.11-5.15-.52-7.72-.79,0-.3-.01-.61-.02-.91Zm467.25-2.29c-1.42,2.05-1.19,4.58.84,5.39,2.05.82,4.33,1.45,6.51,1.46,23.03.11,46.07.11,69.1.02,2.11,0,4.29-.63,6.28-1.37.86-.32,1.87-1.72,1.83-2.57-.06-1-1-2.47-1.9-2.8-2.07-.76-4.34-1.29-6.54-1.33-8.29-.15-16.58-.06-24.87-.06-14.49,0-28.98-.06-43.47.06-2.59.02-5.18.79-7.77,1.21Z"/>
</svg>