<?xml version="1.0" encoding="UTF-8"?>
<svg id="Layer_1" data-name="Layer 1" xmlns="http://www.w3.org/2000/svg" viewBox="0 0 467.6 628.21">
  <defs>
    <style>
      .cls-1 {
        stroke-width: 0px;
      }
    </style>
  </defs>
  <path class="cls-1" d="m467.6,339.59c-18.56,23.51-36.18,45.85-53.81,68.18-55.54,70.35-111.1,140.69-166.63,211.04-9.87,12.5-16.91,12.55-26.81.03-67.19-85.04-134.37-170.09-201.59-255.11-4.14-5.24-7.81-10.52-4.3-17.43,3.13-6.17,8.97-7.01,15.13-7.01,144.21.01,288.42,0,432.62.02,1.25,0,2.51.12,5.39.27Z"/>
  <path class="cls-1" d="m0,288.4c5.33-6.84,9.64-12.44,14.01-17.97C82.14,184.2,150.29,97.97,218.43,11.74c.96-1.21,1.93-2.4,2.9-3.6,8.79-10.84,16.17-10.88,24.8.03,50.32,63.66,100.61,127.34,150.91,191,16.87,21.36,33.78,42.69,50.62,64.08,1.9,2.41,3.87,4.86,5.19,7.6,3.97,8.22-.77,16.57-9.75,17.49-1.78.18-3.59.06-5.38.06-142.9,0-285.8,0-428.7,0-2.45,0-4.91,0-9.01,0Z"/>
</svg>