<?xml version="1.0" encoding="UTF-8"?>
<svg id="Layer_1" data-name="Layer 1" xmlns="http://www.w3.org/2000/svg" viewBox="0 0 624.17 589.99">
  <defs>
    <style>
      .cls-1 {
        fill: inherit;
      }

      .cls-2 {
        fill: inherit;
      }
    </style>
  </defs>
  <g>
    <path class="cls-2" d="M.09,268.48h279.78v-70.03H.09v70.03ZM.09,148.33h279.78v-70H.09v70Z"/>
    <polygon class="cls-2" points="344.31 0 344.31 69.81 375.14 85.78 434.79 116.68 489.65 145.11 543.98 173.28 542.56 174.02 487.72 202.44 431.83 231.4 376.99 259.83 344.31 276.77 344.31 346.8 398.65 319.13 454.39 290.73 515.11 259.83 570.91 231.4 624.08 204.33 624.08 142.15 573.95 116.7 573.95 116.68 513.13 85.78 457.24 57.38 396.41 26.47 344.31 0"/>
  </g>
  <g>
    <path class="cls-1" d="M43.57,419.99l12.03,31.28h-24.12l12.09-31.28ZM34.77,395.83L0,486.95h17.83l7.34-18.77h36.78l7.05,18.77h17.83l-34.67-91.13h-17.4Z"/>
    <path class="cls-1" d="M94.34,419.55h14.34v8.48c1.55-3.34,3.62-5.88,6.19-7.62,2.58-1.73,5.39-2.6,8.45-2.6,2.17,0,4.44.58,6.8,1.73l-5.21,14.55c-1.96-.99-3.58-1.48-4.84-1.48-2.58,0-4.75,1.61-6.53,4.83-1.77,3.22-2.66,9.54-2.66,18.96l.06,3.28v27.26h-16.61v-67.4Z"/>
    <polygon class="cls-1" points="140.42 394.71 157.15 394.71 157.15 419.55 167.08 419.55 167.08 434.1 157.15 434.1 157.15 486.95 140.42 486.95 140.42 434.1 131.84 434.1 131.84 419.55 140.42 419.55 140.42 394.71"/>
    <path class="cls-1" d="M209.3,419.55h16.73v67.4h-16.73v-67.4ZM217.67,391.8c2.94,0,5.45,1.08,7.55,3.22,2.1,2.15,3.15,4.75,3.15,7.81s-1.04,5.58-3.12,7.71c-2.07,2.13-4.56,3.19-7.45,3.19s-5.51-1.08-7.61-3.25c-2.1-2.16-3.14-4.8-3.14-7.9s1.04-5.51,3.11-7.62c2.07-2.11,4.58-3.16,7.52-3.16"/>
    <path class="cls-1" d="M241.23,419.55h16.73v6.91c3.8-3.23,7.23-5.48,10.31-6.74,3.08-1.27,6.23-1.9,9.45-1.9,6.61,0,12.22,2.33,16.83,7,3.87,3.96,5.81,9.82,5.81,17.59v44.54h-16.54v-29.52c0-8.04-.36-13.38-1.07-16.02-.72-2.64-1.96-4.65-3.74-6.03-1.77-1.38-3.96-2.07-6.56-2.07-3.38,0-6.29,1.15-8.71,3.44-2.43,2.29-4.11,5.45-5.05,9.49-.49,2.1-.74,6.66-.74,13.67v27.04h-16.73v-67.4Z"/>
    <polygon class="cls-1" points="344.61 395.83 394.43 395.83 394.43 412.93 378.01 412.93 378.01 486.95 360.6 486.95 360.6 412.93 344.61 412.93 344.61 395.83"/>
    <path class="cls-1" d="M454.42,444.82c-1.11-3.76-3.28-6.82-6.54-9.17-3.25-2.36-7.02-3.53-11.32-3.53-4.67,0-8.75,1.32-12.27,3.96-2.21,1.65-4.26,4.56-6.14,8.73h36.28ZM471.15,458.14h-53.74c.78,4.79,2.85,8.6,6.22,11.43,3.37,2.82,7.67,4.24,12.9,4.24,6.25,0,11.62-2.21,16.11-6.63l14.1,6.69c-3.52,5.04-7.72,8.76-12.63,11.19-4.9,2.41-10.72,3.62-17.46,3.62-10.46,0-18.98-3.34-25.55-10.01-6.58-6.67-9.87-15.02-9.87-25.06s3.28-18.82,9.84-25.61c6.55-6.79,14.77-10.19,24.66-10.19,10.5,0,19.04,3.4,25.62,10.19,6.58,6.79,9.86,15.77,9.86,26.92l-.06,3.22Z"/>
    <path class="cls-1" d="M549.96,433.18l-13.92,7.74c-2.63-2.76-5.22-4.69-7.76-5.76-2.56-1.07-5.57-1.61-8.99-1.61-6.26,0-11.33,1.88-15.2,5.66-3.86,3.77-5.79,8.6-5.79,14.5s1.86,10.41,5.58,14.04c3.72,3.63,8.62,5.44,14.65,5.44,7.49,0,13.33-2.58,17.51-7.74l13.18,9.13c-7.14,9.4-17.24,14.1-30.28,14.1-11.72,0-20.91-3.5-27.54-10.53-6.64-7.02-9.96-15.24-9.96-24.66,0-6.52,1.62-12.53,4.84-18.03,3.23-5.49,7.73-9.81,13.51-12.94,5.78-3.14,12.24-4.71,19.41-4.71,6.62,0,12.56,1.33,17.82,3.99,5.27,2.67,9.59,6.46,12.93,11.37"/>
    <path class="cls-1" d="M565.1,393.53h16.61v32.83c3.26-2.85,6.56-4.99,9.86-6.42,3.31-1.42,6.65-2.14,10.05-2.14,6.62,0,12.2,2.32,16.72,6.94,3.88,4.01,5.82,9.89,5.82,17.65v44.53h-16.48v-29.55c0-7.8-.36-13.09-1.1-15.86-.74-2.77-2-4.83-3.77-6.19-1.77-1.36-3.97-2.04-6.58-2.04-3.4,0-6.3,1.14-8.73,3.41-2.43,2.27-4.12,5.37-5.06,9.29-.48,2.02-.73,6.65-.73,13.88v27.07h-16.61v-93.41Z"/>
  </g>
  <g>
    <path class="cls-1" d="M205.34,544.14l-7.05,6.42c-2.48-3.55-5-5.33-7.57-5.33-1.25,0-2.27.35-3.07,1.04-.79.69-1.19,1.47-1.19,2.33s.29,1.68.85,2.45c.77,1.03,3.1,3.24,6.98,6.63,3.64,3.13,5.84,5.11,6.61,5.93,1.93,2.01,3.3,3.93,4.11,5.77.81,1.83,1.21,3.84,1.21,6.01,0,4.23-1.42,7.72-4.26,10.48-2.84,2.76-6.54,4.14-11.1,4.14-3.56,0-6.67-.9-9.31-2.7-2.65-1.8-4.91-4.63-6.8-8.48l8.01-4.98c2.41,4.56,5.18,6.84,8.31,6.84,1.63,0,3.01-.49,4.12-1.47,1.12-.98,1.67-2.11,1.67-3.4,0-1.17-.42-2.34-1.26-3.51-.84-1.17-2.69-2.96-5.56-5.37-5.45-4.58-8.97-8.11-10.56-10.6-1.59-2.49-2.39-4.97-2.39-7.45,0-3.58,1.33-6.64,3.97-9.2,2.64-2.56,5.91-3.84,9.79-3.84,2.5,0,4.88.6,7.13,1.79,2.26,1.19,4.71,3.36,7.34,6.52"/>
    <path class="cls-1" d="M242.08,564.86c-.61-2.12-1.82-3.85-3.63-5.19-1.8-1.33-3.9-2-6.29-2-2.59,0-4.86.75-6.81,2.24-1.23.94-2.36,2.58-3.4,4.94h20.14ZM251.36,572.39h-29.83c.43,2.71,1.58,4.87,3.45,6.47,1.87,1.6,4.26,2.4,7.16,2.4,3.47,0,6.45-1.25,8.95-3.75l7.83,3.79c-1.95,2.85-4.29,4.96-7.01,6.32-2.72,1.37-5.95,2.05-9.7,2.05-5.8,0-10.53-1.89-14.18-5.66-3.65-3.77-5.48-8.5-5.48-14.18s1.82-10.65,5.46-14.5c3.64-3.85,8.21-5.77,13.69-5.77,5.83,0,10.57,1.92,14.22,5.77,3.65,3.84,5.48,8.92,5.48,15.23l-.03,1.82Z"/>
    <path class="cls-1" d="M256.7,550.55h7.96v4.8c.86-1.89,2.01-3.33,3.43-4.31,1.43-.98,3-1.47,4.69-1.47,1.2,0,2.46.33,3.78.98l-2.89,8.24c-1.09-.56-1.99-.84-2.69-.84-1.43,0-2.64.91-3.62,2.74-.98,1.82-1.48,5.4-1.48,10.73l.03,1.86v15.42h-9.22v-38.15Z"/>
    <polygon class="cls-1" points="305.34 550.55 296.01 573.06 286.66 550.55 277.2 550.55 292.99 588.7 299.01 588.7 314.75 550.55 305.34 550.55"/>
    <path class="cls-1" d="M319.16,550.7h9.29v38.15h-9.29v-38.15ZM323.8,535c1.63,0,3.03.61,4.19,1.82,1.17,1.22,1.75,2.69,1.75,4.41s-.58,3.16-1.73,4.37c-1.15,1.2-2.54,1.81-4.14,1.81s-3.06-.61-4.22-1.84c-1.17-1.23-1.75-2.72-1.75-4.47s.58-3.12,1.73-4.31c1.15-1.19,2.55-1.79,4.17-1.79"/>
    <path class="cls-1" d="M373.11,558.42l-7.73,4.38c-1.46-1.57-2.89-2.65-4.31-3.26-1.41-.61-3.08-.91-4.99-.91-3.48,0-6.29,1.07-8.43,3.2-2.15,2.14-3.22,4.87-3.22,8.21s1.03,5.89,3.1,7.95c2.06,2.05,4.78,3.08,8.14,3.08,4.16,0,7.39-1.46,9.71-4.38l7.32,5.17c-3.97,5.32-9.57,7.98-16.81,7.98-6.51,0-11.61-1.99-15.29-5.96-3.69-3.97-5.53-8.63-5.53-13.95,0-3.69.89-7.09,2.68-10.2,1.79-3.11,4.29-5.55,7.5-7.33,3.21-1.77,6.8-2.66,10.77-2.66,3.67,0,6.97.75,9.9,2.26,2.93,1.51,5.32,3.65,7.18,6.43"/>
    <path class="cls-1" d="M409.27,565.01c-.61-2.12-1.82-3.85-3.63-5.19-1.8-1.33-3.9-2-6.29-2-2.59,0-4.86.75-6.81,2.24-1.23.94-2.36,2.58-3.4,4.94h20.14ZM418.56,572.55h-29.83c.43,2.71,1.58,4.87,3.45,6.47,1.87,1.6,4.26,2.4,7.16,2.4,3.47,0,6.45-1.25,8.95-3.75l7.83,3.79c-1.95,2.85-4.29,4.96-7.01,6.32-2.72,1.37-5.95,2.05-9.7,2.05-5.8,0-10.53-1.89-14.18-5.66-3.65-3.77-5.48-8.5-5.48-14.18s1.82-10.65,5.46-14.5c3.64-3.85,8.21-5.77,13.69-5.77,5.83,0,10.57,1.92,14.22,5.77,3.65,3.84,5.48,8.92,5.48,15.23l-.03,1.82Z"/>
    <path class="cls-1" d="M448.73,556.03l-5.75,5.93c-2.34-2.39-4.46-3.58-6.36-3.58-1.05,0-1.86.23-2.45.69-.59.45-.88,1.02-.88,1.7,0,.51.18.98.56,1.42.38.43,1.3,1.02,2.78,1.77l3.4,1.75c3.58,1.83,6.05,3.68,7.38,5.58,1.34,1.89,2.01,4.11,2.01,6.66,0,3.39-1.21,6.22-3.62,8.48-2.41,2.27-5.65,3.4-9.71,3.4-5.4,0-9.71-2.17-12.92-6.52l5.71-6.41c1.09,1.31,2.36,2.37,3.82,3.17,1.47.81,2.76,1.21,3.9,1.21,1.23,0,2.21-.3,2.96-.91.75-.61,1.12-1.31,1.12-2.11,0-1.47-1.35-2.91-4.04-4.31l-3.14-1.62c-5.98-3.11-8.97-7-8.97-11.67,0-3.02,1.13-5.59,3.38-7.73,2.25-2.14,5.14-3.21,8.66-3.21,2.4,0,4.66.54,6.78,1.63s3.92,2.65,5.39,4.68"/>
  </g>
</svg>