<?xml version="1.0" encoding="UTF-8"?><svg id="Layer_1" xmlns="http://www.w3.org/2000/svg" viewBox="0 0 473.9 246.11"><defs><style>.cls-1{fill:inherit;}</style></defs><g><path class="cls-1" d="M47.12,236.25c0,.52-.02,.98-.05,1.37-.03,.39-.09,.73-.17,1.03-.08,.29-.19,.55-.32,.78-.13,.23-.36,.5-.68,.83-.33,.33-1.01,.82-2.05,1.49-1.04,.67-2.34,1.32-3.88,1.95-1.55,.63-3.32,1.17-5.32,1.61s-4.19,.66-6.57,.66c-4.1,0-7.8-.68-11.11-2.05-3.3-1.37-6.12-3.38-8.45-6.05-2.33-2.67-4.12-5.96-5.37-9.89-1.25-3.92-1.88-8.44-1.88-13.55s.68-9.91,2.03-14.01c1.35-4.1,3.25-7.58,5.69-10.42,2.44-2.85,5.36-5.02,8.76-6.52,3.4-1.5,7.17-2.25,11.3-2.25,1.82,0,3.6,.17,5.32,.51,1.73,.34,3.32,.77,4.79,1.29,1.46,.52,2.77,1.12,3.91,1.81,1.14,.68,1.93,1.25,2.37,1.68s.72,.77,.85,1c.13,.23,.24,.5,.32,.81,.08,.31,.15,.68,.2,1.1,.05,.42,.07,.93,.07,1.51,0,.65-.03,1.21-.1,1.66-.07,.46-.16,.84-.29,1.15-.13,.31-.29,.54-.47,.68-.18,.15-.4,.22-.66,.22-.46,0-1.1-.32-1.91-.95s-1.87-1.33-3.17-2.1c-1.29-.76-2.86-1.46-4.71-2.1-1.85-.63-4.07-.95-6.65-.95-2.82,0-5.38,.56-7.68,1.68s-4.28,2.78-5.92,4.96c-1.64,2.18-2.9,4.84-3.8,7.98-.9,3.14-1.35,6.73-1.35,10.77s.43,7.54,1.3,10.62c.87,3.08,2.11,5.65,3.73,7.71,1.62,2.07,3.61,3.63,5.96,4.69,2.36,1.06,5.02,1.59,8,1.59,2.52,0,4.72-.31,6.6-.93,1.88-.62,3.48-1.31,4.81-2.08,1.33-.76,2.41-1.46,3.26-2.08,.85-.62,1.52-.93,2.01-.93,.23,0,.43,.05,.59,.15,.16,.1,.29,.29,.39,.56,.1,.28,.17,.66,.22,1.15s.07,1.11,.07,1.86Z"/><path class="cls-1" d="M110.69,221.5c0,3.58-.47,6.88-1.42,9.89-.94,3.01-2.35,5.61-4.22,7.79-1.87,2.18-4.22,3.88-7.03,5.1-2.82,1.22-6.08,1.83-9.79,1.83s-6.76-.54-9.45-1.61-4.92-2.64-6.71-4.69c-1.79-2.05-3.12-4.54-4-7.47s-1.32-6.25-1.32-9.96,.46-6.88,1.39-9.89c.93-3.01,2.33-5.61,4.2-7.79,1.87-2.18,4.21-3.87,7.01-5.08,2.8-1.2,6.07-1.81,9.81-1.81s6.76,.54,9.45,1.61,4.92,2.64,6.71,4.69c1.79,2.05,3.13,4.54,4.03,7.47,.9,2.93,1.34,6.23,1.34,9.91Zm-8.35,.54c0-2.38-.22-4.62-.67-6.74-.44-2.12-1.18-3.97-2.19-5.57-1.02-1.59-2.4-2.86-4.14-3.78-1.74-.93-3.91-1.39-6.5-1.39-2.4,0-4.46,.42-6.18,1.27-1.72,.85-3.15,2.04-4.26,3.59-1.12,1.55-1.95,3.38-2.49,5.49-.54,2.12-.81,4.43-.81,6.93s.22,4.67,.67,6.79c.44,2.12,1.18,3.96,2.22,5.54,1.03,1.58,2.42,2.83,4.16,3.76s3.91,1.39,6.5,1.39c2.37,0,4.42-.42,6.16-1.27,1.74-.85,3.17-2.03,4.29-3.56,1.12-1.53,1.94-3.35,2.46-5.47,.53-2.12,.79-4.44,.79-6.98Z"/><path class="cls-1" d="M172.9,243.96c0,.26-.07,.48-.2,.66-.13,.18-.34,.33-.63,.46s-.7,.23-1.22,.29c-.52,.07-1.17,.1-1.95,.1s-1.48-.03-2-.1c-.52-.07-.93-.16-1.22-.29s-.5-.28-.63-.46c-.13-.18-.2-.4-.2-.66v-25.73c0-2.51-.2-4.52-.59-6.05-.39-1.53-.96-2.85-1.71-3.96-.75-1.11-1.72-1.95-2.91-2.54-1.19-.59-2.56-.88-4.13-.88-2.02,0-4.04,.72-6.05,2.15-2.02,1.43-4.13,3.53-6.35,6.3v30.71c0,.26-.07,.48-.2,.66-.13,.18-.34,.33-.63,.46s-.7,.23-1.22,.29c-.52,.07-1.19,.1-2,.1s-1.43-.03-1.95-.1c-.52-.07-.94-.16-1.25-.29-.31-.13-.52-.28-.63-.46-.11-.18-.17-.4-.17-.66v-43.95c0-.26,.05-.48,.15-.66,.1-.18,.29-.34,.59-.49s.67-.24,1.12-.29c.46-.05,1.06-.07,1.81-.07s1.31,.02,1.78,.07c.47,.05,.84,.15,1.1,.29,.26,.15,.45,.31,.56,.49,.11,.18,.17,.4,.17,.66v5.81c2.47-2.77,4.94-4.79,7.4-6.08,2.46-1.29,4.94-1.93,7.45-1.93,2.93,0,5.4,.5,7.4,1.49,2,.99,3.62,2.32,4.86,3.98,1.24,1.66,2.12,3.61,2.66,5.83,.54,2.23,.81,4.91,.81,8.03v26.81Z"/><path class="cls-1" d="M237.4,198.75c.98,0,1.64,.22,2,.66,.36,.44,.54,1.08,.54,1.93v42.63c0,.26-.07,.48-.2,.66-.13,.18-.35,.33-.66,.46-.31,.13-.72,.23-1.25,.29-.52,.07-1.16,.1-1.9,.1-.81,0-1.48-.03-2-.1-.52-.07-.94-.16-1.25-.29-.31-.13-.53-.28-.66-.46-.13-.18-.2-.4-.2-.66v-38.53h-22.71v24.51c0,3.03,.45,5.31,1.34,6.86,.89,1.55,2.5,2.32,4.81,2.32,.75,0,1.42-.07,2-.22s1.11-.3,1.56-.46c.46-.16,.85-.32,1.17-.46,.33-.15,.62-.22,.88-.22,.16,0,.32,.04,.46,.12,.15,.08,.26,.24,.34,.46,.08,.23,.15,.54,.22,.93,.06,.39,.1,.88,.1,1.46,0,.94-.07,1.68-.2,2.22-.13,.54-.33,.94-.59,1.22-.26,.28-.65,.53-1.17,.76-.52,.23-1.12,.42-1.78,.56-.67,.15-1.38,.27-2.12,.37-.75,.1-1.5,.15-2.25,.15-2.28,0-4.23-.3-5.86-.9-1.63-.6-2.96-1.51-4-2.73-1.04-1.22-1.8-2.77-2.27-4.64-.47-1.87-.71-4.08-.71-6.62v-25.68h-6.15c-.49,0-.88-.26-1.17-.78-.29-.52-.44-1.37-.44-2.54,0-.62,.04-1.14,.12-1.56,.08-.42,.19-.77,.32-1.05,.13-.28,.3-.47,.51-.59,.21-.11,.45-.17,.71-.17h6.1v-10.45c0-.23,.06-.44,.17-.63,.11-.2,.33-.37,.63-.51,.31-.15,.72-.25,1.25-.32,.52-.06,1.17-.1,1.95-.1s1.48,.03,2,.1c.52,.07,.93,.17,1.22,.32s.5,.32,.63,.51c.13,.2,.2,.41,.2,.63v10.45h28.27Zm3.47-13.57c0,1.89-.36,3.17-1.07,3.86-.72,.68-2.04,1.03-3.96,1.03s-3.18-.33-3.88-1c-.7-.67-1.05-1.93-1.05-3.78s.36-3.17,1.07-3.86c.72-.68,2.03-1.03,3.96-1.03s3.18,.33,3.88,1c.7,.67,1.05,1.93,1.05,3.78Z"/></g><g><path class="cls-1" d="M38.87,46.39c0,2.96-.55,5.6-1.64,7.91-1.09,2.31-2.6,4.27-4.54,5.88-1.94,1.61-4.22,2.82-6.84,3.64-2.62,.81-5.44,1.22-8.47,1.22-2.12,0-4.08-.18-5.88-.54-1.81-.36-3.42-.8-4.83-1.32s-2.6-1.06-3.56-1.61c-.96-.55-1.63-1.03-2-1.42-.37-.39-.65-.89-.83-1.49-.18-.6-.27-1.41-.27-2.42,0-.72,.03-1.31,.1-1.78,.06-.47,.16-.85,.29-1.15,.13-.29,.29-.5,.49-.61s.42-.17,.68-.17c.46,0,1.1,.28,1.93,.83s1.9,1.16,3.2,1.81c1.3,.65,2.87,1.26,4.71,1.83,1.84,.57,3.96,.85,6.37,.85,1.82,0,3.49-.24,5-.73s2.82-1.18,3.91-2.08c1.09-.9,1.93-1.99,2.51-3.3s.88-2.78,.88-4.44c0-1.79-.41-3.32-1.22-4.59-.81-1.27-1.89-2.38-3.22-3.34-1.33-.96-2.86-1.84-4.57-2.64s-3.46-1.61-5.25-2.44c-1.79-.83-3.53-1.75-5.22-2.76-1.69-1.01-3.21-2.2-4.54-3.56-1.33-1.37-2.42-2.97-3.25-4.81s-1.25-4.04-1.25-6.62,.48-4.99,1.44-7.06c.96-2.07,2.29-3.8,4-5.2s3.74-2.47,6.1-3.2c2.36-.73,4.91-1.1,7.64-1.1,1.4,0,2.81,.12,4.22,.37s2.75,.57,4,.98c1.25,.41,2.37,.86,3.34,1.37s1.62,.91,1.93,1.22c.31,.31,.51,.55,.61,.73s.18,.41,.24,.68c.06,.28,.11,.61,.15,1,.03,.39,.05,.9,.05,1.51,0,.59-.02,1.11-.07,1.56s-.12,.84-.22,1.15-.24,.54-.42,.68c-.18,.15-.38,.22-.61,.22-.36,0-.92-.23-1.68-.68-.77-.46-1.7-.97-2.81-1.54-1.11-.57-2.42-1.09-3.93-1.56s-3.21-.71-5.1-.71c-1.76,0-3.29,.24-4.59,.71-1.3,.47-2.38,1.1-3.22,1.88-.85,.78-1.48,1.71-1.9,2.78-.42,1.07-.63,2.21-.63,3.42,0,1.76,.41,3.27,1.22,4.54,.81,1.27,1.9,2.39,3.25,3.37,1.35,.98,2.89,1.87,4.61,2.69,1.73,.81,3.48,1.64,5.27,2.47,1.79,.83,3.55,1.74,5.27,2.73,1.73,.99,3.26,2.17,4.61,3.52,1.35,1.35,2.44,2.95,3.27,4.79s1.25,4.01,1.25,6.52Z"/><path class="cls-1" d="M100.1,62.89c0,.26-.06,.48-.17,.66-.11,.18-.32,.33-.61,.46s-.68,.23-1.15,.29c-.47,.06-1.05,.1-1.73,.1-.75,0-1.36-.03-1.83-.1-.47-.07-.85-.16-1.12-.29-.28-.13-.46-.29-.56-.46s-.15-.4-.15-.66v-5.81c-2.51,2.77-4.98,4.79-7.42,6.05s-4.92,1.9-7.42,1.9c-2.93,0-5.4-.49-7.4-1.46s-3.62-2.3-4.86-3.98c-1.24-1.68-2.12-3.63-2.66-5.86s-.81-4.94-.81-8.13V18.95c0-.26,.06-.48,.17-.66,.11-.18,.33-.34,.66-.49,.33-.15,.75-.24,1.27-.29,.52-.05,1.17-.07,1.95-.07s1.43,.02,1.95,.07c.52,.05,.94,.15,1.25,.29,.31,.15,.53,.31,.66,.49,.13,.18,.2,.4,.2,.66v25.59c0,2.57,.19,4.63,.56,6.18,.37,1.55,.94,2.86,1.71,3.96,.76,1.09,1.73,1.94,2.91,2.54s2.54,.9,4.1,.9c2.02,0,4.03-.72,6.03-2.15s4.13-3.53,6.37-6.3V18.95c0-.26,.06-.48,.17-.66,.11-.18,.33-.34,.66-.49,.33-.15,.74-.24,1.25-.29,.5-.05,1.16-.07,1.98-.07s1.43,.02,1.95,.07c.52,.05,.93,.15,1.22,.29s.51,.31,.66,.49,.22,.4,.22,.66V62.89Z"/><path class="cls-1" d="M155.52,60.69c0,.62-.05,1.15-.15,1.59s-.21,.8-.34,1.07c-.13,.28-.31,.47-.54,.59-.23,.11-.47,.17-.73,.17h-27.05c-.68,0-1.25-.23-1.68-.68s-.66-1.22-.66-2.29v-1.66c0-.46,.03-.86,.1-1.22,.06-.36,.16-.72,.29-1.07,.13-.36,.31-.74,.54-1.15,.23-.41,.5-.87,.83-1.39l19.38-30.18h-18.8c-.52,0-.94-.27-1.25-.81-.31-.54-.46-1.41-.46-2.61,0-.59,.03-1.1,.1-1.54,.06-.44,.17-.8,.32-1.07s.33-.47,.54-.59c.21-.11,.46-.17,.76-.17h25.2c.36,0,.68,.05,.95,.15,.28,.1,.51,.26,.71,.49s.35,.52,.46,.88c.11,.36,.17,.81,.17,1.37v1.56c0,.46-.03,.88-.1,1.27-.07,.39-.16,.77-.29,1.15-.13,.37-.31,.77-.54,1.2-.23,.42-.5,.9-.83,1.42l-19.29,30.18h20.61c.26,0,.5,.06,.71,.17,.21,.11,.39,.3,.54,.56s.27,.61,.37,1.05,.15,.97,.15,1.59Z"/><path class="cls-1" d="M210.94,62.94c0,.39-.13,.68-.39,.88-.26,.2-.62,.34-1.07,.44-.46,.1-1.12,.15-2,.15s-1.52-.05-2.03-.15c-.5-.1-.87-.24-1.1-.44-.23-.2-.34-.49-.34-.88v-4.39c-1.92,2.05-4.06,3.65-6.42,4.79-2.36,1.14-4.86,1.71-7.5,1.71-2.31,0-4.4-.3-6.27-.9-1.87-.6-3.47-1.47-4.79-2.61s-2.34-2.54-3.08-4.2-1.1-3.55-1.1-5.66c0-2.47,.5-4.62,1.51-6.45,1.01-1.82,2.46-3.34,4.35-4.54,1.89-1.2,4.2-2.11,6.93-2.71s5.81-.9,9.23-.9h6.05v-3.42c0-1.69-.18-3.19-.54-4.49-.36-1.3-.94-2.38-1.73-3.25-.8-.86-1.83-1.51-3.1-1.95s-2.83-.66-4.69-.66c-1.99,0-3.77,.24-5.35,.71-1.58,.47-2.96,.99-4.15,1.56-1.19,.57-2.18,1.09-2.98,1.56-.8,.47-1.39,.71-1.78,.71-.26,0-.49-.07-.68-.2s-.37-.33-.51-.59-.25-.59-.32-1c-.07-.41-.1-.85-.1-1.34,0-.81,.06-1.46,.17-1.93,.11-.47,.39-.92,.83-1.34s1.2-.92,2.27-1.49,2.31-1.09,3.71-1.56c1.4-.47,2.93-.86,4.59-1.17s3.34-.46,5.03-.46c3.16,0,5.84,.36,8.06,1.07,2.21,.72,4,1.77,5.37,3.15s2.36,3.1,2.98,5.15c.62,2.05,.93,4.44,.93,7.18v29.64Zm-8.01-20.07h-6.88c-2.21,0-4.13,.19-5.76,.56-1.63,.37-2.98,.93-4.05,1.66s-1.86,1.61-2.37,2.64c-.5,1.03-.76,2.21-.76,3.54,0,2.28,.72,4.09,2.17,5.44,1.45,1.35,3.47,2.03,6.08,2.03,2.12,0,4.08-.54,5.88-1.61s3.7-2.72,5.69-4.93v-9.33Z"/><path class="cls-1" d="M276.07,62.89c0,.26-.07,.48-.2,.66-.13,.18-.34,.33-.63,.46s-.7,.23-1.22,.29c-.52,.06-1.17,.1-1.95,.1s-1.48-.03-2-.1c-.52-.07-.93-.16-1.22-.29s-.5-.29-.63-.46c-.13-.18-.2-.4-.2-.66v-25.73c0-2.51-.2-4.52-.59-6.05s-.96-2.85-1.71-3.96c-.75-1.11-1.72-1.95-2.91-2.54-1.19-.59-2.56-.88-4.13-.88-2.02,0-4.04,.72-6.05,2.15-2.02,1.43-4.13,3.53-6.35,6.3v30.71c0,.26-.07,.48-.2,.66-.13,.18-.34,.33-.63,.46s-.7,.23-1.22,.29c-.52,.06-1.19,.1-2,.1s-1.43-.03-1.95-.1c-.52-.07-.94-.16-1.25-.29-.31-.13-.52-.29-.63-.46-.11-.18-.17-.4-.17-.66V18.95c0-.26,.05-.48,.15-.66s.29-.34,.59-.49,.67-.24,1.12-.29c.46-.05,1.06-.07,1.81-.07s1.31,.02,1.78,.07c.47,.05,.84,.15,1.1,.29,.26,.15,.45,.31,.56,.49,.11,.18,.17,.4,.17,.66v5.81c2.47-2.77,4.94-4.79,7.4-6.08,2.46-1.29,4.94-1.93,7.45-1.93,2.93,0,5.4,.5,7.4,1.49s3.62,2.32,4.86,3.98c1.24,1.66,2.12,3.61,2.66,5.83s.81,4.91,.81,8.03v26.81Z"/><path class="cls-1" d="M341.11,62.89c0,.26-.07,.48-.2,.66-.13,.18-.34,.33-.63,.46s-.7,.23-1.22,.29c-.52,.06-1.17,.1-1.95,.1s-1.48-.03-2-.1c-.52-.07-.93-.16-1.22-.29s-.5-.29-.63-.46c-.13-.18-.2-.4-.2-.66v-25.73c0-2.51-.2-4.52-.59-6.05s-.96-2.85-1.71-3.96c-.75-1.11-1.72-1.95-2.91-2.54-1.19-.59-2.56-.88-4.13-.88-2.02,0-4.04,.72-6.05,2.15-2.02,1.43-4.13,3.53-6.35,6.3v30.71c0,.26-.07,.48-.2,.66-.13,.18-.34,.33-.63,.46s-.7,.23-1.22,.29c-.52,.06-1.19,.1-2,.1s-1.43-.03-1.95-.1c-.52-.07-.94-.16-1.25-.29-.31-.13-.52-.29-.63-.46-.11-.18-.17-.4-.17-.66V18.95c0-.26,.05-.48,.15-.66s.29-.34,.59-.49,.67-.24,1.12-.29c.46-.05,1.06-.07,1.81-.07s1.31,.02,1.78,.07c.47,.05,.84,.15,1.1,.29,.26,.15,.45,.31,.56,.49,.11,.18,.17,.4,.17,.66v5.81c2.47-2.77,4.94-4.79,7.4-6.08,2.46-1.29,4.94-1.93,7.45-1.93,2.93,0,5.4,.5,7.4,1.49s3.62,2.32,4.86,3.98c1.24,1.66,2.12,3.61,2.66,5.83s.81,4.91,.81,8.03v26.81Z"/><path class="cls-1" d="M405.81,39.01c0,1.27-.32,2.17-.96,2.71s-1.36,.81-2.18,.81h-28.94c0,2.44,.25,4.64,.74,6.59s1.31,3.63,2.45,5.03c1.14,1.4,2.63,2.47,4.46,3.22,1.83,.75,4.07,1.12,6.72,1.12,2.09,0,3.96-.17,5.59-.51s3.05-.72,4.25-1.15c1.19-.42,2.17-.81,2.94-1.15,.77-.34,1.35-.51,1.74-.51,.23,0,.43,.06,.61,.17s.32,.29,.42,.51,.17,.54,.22,.95,.07,.9,.07,1.49c0,.42-.02,.79-.05,1.1-.03,.31-.07,.59-.12,.83s-.13,.46-.24,.66c-.11,.2-.26,.38-.44,.56-.18,.18-.71,.47-1.59,.88s-2.02,.81-3.42,1.2c-1.4,.39-3.02,.74-4.86,1.05-1.84,.31-3.8,.46-5.88,.46-3.61,0-6.78-.5-9.5-1.51-2.72-1.01-5-2.51-6.86-4.49s-3.26-4.48-4.2-7.47c-.94-3-1.42-6.48-1.42-10.45s.49-7.17,1.46-10.18,2.38-5.57,4.22-7.67c1.84-2.1,4.06-3.71,6.67-4.83,2.6-1.12,5.52-1.68,8.74-1.68,3.45,0,6.39,.55,8.81,1.66,2.42,1.11,4.42,2.6,5.98,4.47s2.71,4.07,3.44,6.59,1.1,5.22,1.1,8.08v1.46Zm-8.11-2.39c.1-4.23-.84-7.55-2.83-9.96-1.98-2.41-4.92-3.61-8.82-3.61-2,0-3.75,.37-5.26,1.12-1.51,.75-2.77,1.74-3.78,2.98s-1.8,2.68-2.36,4.32c-.56,1.64-.87,3.36-.93,5.15h23.97Z"/></g><g><rect class="cls-1" x="137.65" y="120.82" width="70.81" height="8.13" rx="4" ry="4"/><rect class="cls-1" x="4.93" y="120.82" width="70.81" height="8.13" rx="4" ry="4"/><rect class="cls-1" x="270.37" y="120.82" width="70.81" height="8.13" rx="4" ry="4"/><rect class="cls-1" x="403.09" y="120.82" width="70.81" height="8.13" rx="4" ry="4"/></g></svg>