<?xml version="1.0" encoding="UTF-8"?>
<svg id="Layer_1" xmlns="http://www.w3.org/2000/svg" viewBox="0 0 468.97 217.83">
  <defs>
    <style>
      .cls-1 {
        fill: inherit;
      }
    </style>
  </defs>
  <g>
    <g>
      <path class="cls-1" d="M54.78,216.89l.88.82h-20.85c-4.24,0-8.23-.81-11.97-2.42-3.74-1.62-7-3.82-9.8-6.62-2.79-2.79-5-6.06-6.62-9.8-1.62-3.74-2.43-7.73-2.43-11.97s.81-8.23,2.43-11.97c1.62-3.74,3.82-7,6.62-9.8,2.79-2.79,6.06-5,9.8-6.62,3.74-1.62,7.73-2.43,11.97-2.43h6.99c.88,0,1.67-.06,2.36-.19s1.38-.27,2.05-.44c.67-.17,1.36-.31,2.08-.44.71-.13,1.53-.19,2.46-.19.67.04,1.36.11,2.08.19.59.08,1.21.2,1.86.35.65.15,1.21.39,1.67.72v.95c-.29-.13-.55-.23-.76-.31-.21-.08-.34-.15-.38-.19-.34-.17-.88-.35-1.64-.54-.76-.19-1.7-.28-2.83-.28-.88,0-1.66.06-2.33.19-.67.13-1.34.27-2.02.44-.67.17-1.37.31-2.08.44-.71.13-1.55.19-2.52.19h-6.99c-4.12,0-7.99.79-11.62,2.36-3.63,1.58-6.8,3.72-9.51,6.43s-4.85,5.88-6.43,9.51c-1.58,3.63-2.36,7.51-2.36,11.62s.79,8,2.36,11.66c1.57,3.65,3.72,6.83,6.43,9.54s5.88,4.85,9.51,6.43c3.63,1.58,7.51,2.36,11.62,2.36h19.97ZM54.97,157.17c.21.08.43.18.66.28.23.11.47.2.72.28v3.91c-.67-.29-1.05-.44-1.13-.44-.71-.25-1.44-.43-2.17-.54-.74-.1-1.5-.16-2.3-.16-.97,0-1.84.07-2.61.22-.78.15-1.52.31-2.24.47-.63.17-1.27.32-1.92.44-.65.13-1.38.19-2.17.19h-6.99c-3.49,0-6.75.66-9.8,1.98-3.05,1.32-5.7,3.12-7.97,5.39s-4.06,4.92-5.39,7.97c-1.32,3.05-1.98,6.29-1.98,9.73s.66,6.75,1.98,9.8c1.32,3.05,3.12,5.7,5.39,7.97,2.27,2.27,4.92,4.06,7.97,5.39,3.04,1.32,6.31,1.98,9.8,1.98h19.28l-2.08,2.08,2.08,2.08h-19.28c-4.03,0-7.82-.77-11.37-2.3-3.55-1.53-6.65-3.63-9.29-6.3-2.65-2.67-4.74-5.77-6.27-9.32-1.53-3.55-2.3-7.34-2.3-11.37s.77-7.82,2.3-11.37c1.53-3.55,3.62-6.65,6.27-9.29,2.65-2.65,5.74-4.74,9.29-6.27,3.55-1.53,7.34-2.3,11.37-2.3h6.99c.97,0,1.83-.06,2.58-.19.76-.13,1.49-.27,2.21-.44.63-.17,1.27-.31,1.92-.44.65-.13,1.4-.19,2.24-.19,1.09,0,1.98.09,2.68.28.69.19,1.21.35,1.54.47ZM34.81,163.4c-3.23,0-6.28.62-9.14,1.86-2.86,1.24-5.35,2.92-7.5,5.04-2.14,2.12-3.83,4.61-5.07,7.47-1.24,2.86-1.86,5.9-1.86,9.13s.62,6.28,1.86,9.13c1.24,2.86,2.93,5.36,5.07,7.5,2.14,2.14,4.64,3.83,7.5,5.07,2.86,1.24,5.9,1.86,9.14,1.86h20.85l-.88.88h-19.97c-3.36,0-6.53-.64-9.51-1.92-2.98-1.28-5.58-3.02-7.78-5.23-2.21-2.21-3.95-4.8-5.23-7.78-1.28-2.98-1.92-6.15-1.92-9.51s.64-6.52,1.92-9.48c1.28-2.96,3.02-5.54,5.23-7.75,2.2-2.21,4.8-3.95,7.78-5.23,2.98-1.28,6.15-1.92,9.51-1.92h6.99c.84,0,1.58-.06,2.24-.19.65-.13,1.33-.27,2.05-.44.71-.17,1.43-.33,2.14-.47.71-.15,1.55-.22,2.52-.22,1.6,0,3,.21,4.22.63.17.08.38.17.63.25.25.08.5.17.76.25v1.07c-.55-.34-1.13-.59-1.76-.76-.63-.17-1.24-.29-1.83-.38-.67-.13-1.34-.19-2.02-.19-.88,0-1.68.07-2.39.22-.71.15-1.41.29-2.08.44-.67.15-1.37.29-2.08.44-.71.15-1.51.22-2.39.22h-6.99ZM50.93,162.77c.67,0,1.34.06,2.02.19.59.08,1.19.21,1.8.38.61.17,1.14.42,1.61.76-.46.34-1,.59-1.61.76-.61.17-1.21.29-1.8.38-.67.13-1.34.17-2.02.13-.92,0-1.75-.06-2.49-.19-.74-.13-1.44-.27-2.11-.44-.67-.17-1.37-.32-2.08-.44-.71-.13-1.51-.19-2.39-.19.8,0,1.55-.07,2.27-.22.71-.15,1.43-.29,2.14-.44.71-.15,1.45-.29,2.21-.44s1.58-.22,2.46-.22Z"/>
      <path class="cls-1" d="M91.25,217.77c-4.16-.08-8.05-.95-11.69-2.58-3.63-1.64-6.8-3.84-9.51-6.62s-4.84-6-6.39-9.67c-1.55-3.67-2.33-7.59-2.33-11.75s.78-8.07,2.33-11.75c1.55-3.67,3.67-6.89,6.36-9.64,2.69-2.75,5.84-4.96,9.45-6.62,3.61-1.66,7.48-2.55,11.59-2.68l.57.38.5.5h-.13c-4.12,0-7.98.78-11.59,2.33-3.61,1.55-6.77,3.69-9.48,6.39s-4.84,5.87-6.39,9.48c-1.55,3.61-2.33,7.48-2.33,11.59s.73,7.68,2.21,11.18c1.47,3.51,3.46,6.59,5.98,9.26,2.52,2.67,5.49,4.82,8.91,6.46,3.42,1.64,7.09,2.56,10.99,2.77l.94.95ZM62.9,187.15c0-4.03.77-7.81,2.3-11.34,1.53-3.53,3.61-6.6,6.24-9.23,2.62-2.62,5.7-4.7,9.23-6.24,3.53-1.53,7.31-2.3,11.34-2.3h.82l2.02,2.08-2.02,2.08h-.82c-3.44,0-6.69.65-9.73,1.95-3.05,1.3-5.7,3.09-7.97,5.36-2.27,2.27-4.05,4.91-5.35,7.94-1.3,3.02-1.95,6.26-1.95,9.7,0,3.23.59,6.3,1.76,9.2,1.18,2.9,2.79,5.45,4.85,7.65,2.06,2.21,4.47,4.01,7.24,5.42s5.75,2.26,8.95,2.55l-2.21,2.21,1.95,1.95c-3.74-.29-7.22-1.26-10.46-2.9-3.23-1.64-6.05-3.76-8.44-6.36-2.39-2.6-4.28-5.6-5.67-8.98-1.39-3.38-2.08-6.96-2.08-10.74ZM92.14,162.9l-.57.57-.19.32c-3.15.08-6.11.75-8.88,1.98-2.77,1.24-5.19,2.92-7.25,5.04-2.06,2.12-3.69,4.58-4.88,7.37-1.2,2.79-1.8,5.79-1.8,8.98s.6,6.12,1.8,8.91c1.2,2.79,2.81,5.24,4.85,7.34,2.04,2.1,4.43,3.78,7.18,5.04,2.75,1.26,5.7,1.95,8.85,2.08l-.82.82c-3.15-.21-6.11-.99-8.88-2.33s-5.19-3.1-7.25-5.26c-2.06-2.16-3.68-4.66-4.85-7.5-1.18-2.83-1.76-5.87-1.76-9.1s.64-6.51,1.92-9.45c1.28-2.94,3.02-5.51,5.23-7.72,2.2-2.21,4.78-3.94,7.72-5.2,2.94-1.26,6.09-1.89,9.45-1.89h.13ZM89.11,214.18l2.08-2.14c.17.04.44.06.82.06,3.44,0,6.68-.65,9.7-1.95,3.02-1.3,5.67-3.09,7.94-5.36,2.27-2.27,4.05-4.91,5.35-7.94,1.3-3.02,1.95-6.26,1.95-9.7s-.59-6.35-1.76-9.23c-1.18-2.88-2.79-5.43-4.85-7.65-2.06-2.23-4.47-4.04-7.25-5.45-2.77-1.41-5.75-2.26-8.95-2.55l2.2-2.14-1.95-1.95c3.7.29,7.17,1.26,10.43,2.9,3.25,1.64,6.08,3.75,8.47,6.33s4.28,5.57,5.67,8.95c1.39,3.38,2.08,6.98,2.08,10.8s-.77,7.75-2.3,11.28c-1.53,3.53-3.61,6.6-6.24,9.23-2.63,2.62-5.7,4.7-9.23,6.24-3.53,1.53-7.29,2.3-11.28,2.3h-.88l-2.02-2.02ZM92.7,156.47c4.16.08,8.05.94,11.69,2.58,3.63,1.64,6.8,3.84,9.51,6.61,2.71,2.77,4.84,6.01,6.39,9.7,1.55,3.7,2.33,7.62,2.33,11.78s-.79,8.09-2.36,11.78c-1.58,3.7-3.73,6.93-6.46,9.7-2.73,2.77-5.92,4.98-9.58,6.62-3.65,1.64-7.56,2.48-11.72,2.52l-.06-.25-.63-.63h.19c4.07,0,7.92-.78,11.53-2.33,3.61-1.55,6.77-3.69,9.48-6.39s4.84-5.86,6.39-9.45c1.55-3.59,2.33-7.44,2.33-11.56s-.74-7.69-2.21-11.21c-1.47-3.53-3.46-6.62-5.98-9.29-2.52-2.67-5.49-4.82-8.91-6.46-3.42-1.64-7.09-2.56-10.99-2.77l-.94-.94ZM116.27,187.15c0,3.36-.64,6.51-1.92,9.45-1.28,2.94-3.01,5.5-5.2,7.69-2.18,2.18-4.76,3.92-7.72,5.2-2.96,1.28-6.1,1.92-9.42,1.92h-.19l.69-.69v-.19c3.15-.08,6.12-.76,8.91-2.02,2.79-1.26,5.22-2.94,7.28-5.04,2.06-2.1,3.69-4.56,4.88-7.37,1.2-2.81,1.8-5.8,1.8-8.95s-.6-6.12-1.8-8.92c-1.2-2.79-2.81-5.25-4.85-7.37-2.04-2.12-4.43-3.81-7.18-5.07-2.75-1.26-5.7-1.93-8.85-2.02l.82-.88c3.15.21,6.11.99,8.88,2.33,2.77,1.34,5.19,3.11,7.24,5.29,2.06,2.18,3.67,4.7,4.85,7.56,1.18,2.86,1.76,5.88,1.76,9.07Z"/>
      <path class="cls-1" d="M178.45,216.51l-.69.5-36.23-46.75v47.56l-.88-.88v-47.82l-.69-.88v48.01l-2.08-2.08-2.02,2.08v-53.36l-.69-.88v54.94l-.88.88v-56.95l.69-.57,43.47,56.2ZM135.54,159.94l3.28-2.58,43.47,56.2-3.28,2.52-43.47-56.13ZM139.39,156.98l.63-.57,36.23,46.81v-46.81l.88.69v47.25l.69.88v-47.57l2.08,1.64,2.08-1.64v52.92l.69.88v-54.31l.88-.76v56.2h-.06l-.63.5-43.47-56.13Z"/>
      <path class="cls-1" d="M210.64,166.17c-1.18,0-2.29.23-3.34.69-1.05.46-1.96,1.08-2.74,1.86-.78.78-1.4,1.69-1.86,2.74-.46,1.05-.69,2.16-.69,3.34s.23,2.29.69,3.34c.46,1.05,1.08,1.96,1.86,2.74.78.78,1.69,1.4,2.74,1.86,1.05.46,2.16.69,3.34.69h3.97l-.88.88h-3.09c-1.3,0-2.53-.25-3.69-.76-1.16-.5-2.16-1.19-3.03-2.05-.86-.86-1.54-1.87-2.05-3.02s-.76-2.38-.76-3.69.25-2.53.76-3.69,1.19-2.15,2.05-2.99c.86-.84,1.87-1.51,3.03-2.02,1.15-.5,2.38-.76,3.69-.76h10.14c-.08-.34-.13-.57-.13-.69h-10.02c-1.39,0-2.7.26-3.94.79-1.24.53-2.32,1.25-3.24,2.17-.93.92-1.66,2.01-2.21,3.25-.55,1.24-.82,2.55-.82,3.94s.27,2.7.82,3.94c.54,1.24,1.28,2.32,2.21,3.24.92.92,2,1.66,3.24,2.21,1.24.55,2.55.82,3.94.82h2.39l-2.08,2.08,2.08,2.02h-2.39c-1.97,0-3.83-.38-5.58-1.13-1.74-.76-3.26-1.77-4.54-3.06-1.28-1.28-2.3-2.79-3.06-4.54-.76-1.74-1.13-3.6-1.13-5.58s.38-3.83,1.13-5.58c.76-1.74,1.77-3.25,3.06-4.54,1.28-1.28,2.79-2.3,4.54-3.05,1.74-.76,3.6-1.13,5.58-1.13h9.76c0-.29.02-.52.06-.69h-9.83c-2.06,0-4,.4-5.83,1.2-1.83.8-3.41,1.87-4.76,3.21-1.35,1.34-2.42,2.93-3.21,4.76-.8,1.83-1.2,3.77-1.2,5.83s.4,4,1.2,5.83c.8,1.83,1.87,3.41,3.21,4.76,1.34,1.34,2.93,2.42,4.76,3.21,1.83.8,3.77,1.2,5.83,1.2h3.09l.88.88h-3.97c-2.19,0-4.24-.42-6.17-1.26-1.93-.84-3.61-1.97-5.04-3.4s-2.56-3.11-3.4-5.04-1.26-3.99-1.26-6.17.42-4.24,1.26-6.17c.84-1.93,1.97-3.61,3.4-5.04,1.43-1.43,3.11-2.56,5.04-3.4,1.93-.84,3.99-1.26,6.17-1.26h9.95c.04-.34.13-.65.25-.95.08-.25.18-.51.28-.79.11-.27.24-.51.41-.72.34.46.58.99.72,1.57.15.59.26,1.16.35,1.7.08.63.15,1.26.19,1.89,0,.8-.07,1.56-.22,2.3-.15.74-.3,1.47-.47,2.21-.17.74-.31,1.45-.44,2.14-.13.69-.17,1.38-.13,2.05,0-.8-.05-1.53-.16-2.21-.11-.67-.24-1.32-.41-1.95h-10.33ZM223.68,157.86c.12.29.27.76.44,1.39.17.63.25,1.43.25,2.39,0,.84-.06,1.56-.19,2.17-.13.61-.25,1.23-.38,1.86-.04.17-.11.38-.19.63-.08.46-.18.91-.28,1.35-.11.44-.18.91-.22,1.42v47.88l-.88.88v-47.5c0-.84.06-1.61.19-2.3.12-.69.27-1.38.44-2.05s.32-1.35.44-2.05c.13-.69.19-1.46.19-2.3-.04-.63-.11-1.26-.19-1.89-.08-.54-.2-1.11-.35-1.7-.15-.59-.39-1.11-.72-1.57h.76l.69,1.39ZM228.15,157.8c.12.34.27.82.44,1.45.17.63.25,1.43.25,2.39,0,.84-.06,1.56-.19,2.17-.13.61-.25,1.23-.38,1.86-.04.17-.1.38-.19.63-.09.46-.19.91-.32,1.35-.12.44-.19.91-.19,1.42v47.19l-1.89-1.89-1.89,1.89v-47.12c0-.5.05-.96.16-1.39.1-.42.22-.84.35-1.26.04-.08.06-.19.06-.32s.02-.23.06-.31c.17-.67.31-1.33.44-1.98.12-.65.19-1.4.19-2.24,0-.97-.08-1.8-.25-2.49-.17-.69-.34-1.23-.5-1.61l-.5-1.07h3.72l.63,1.32ZM243.9,166.17h-14.18c-.12.63-.25,1.27-.38,1.92-.13.65-.19,1.4-.19,2.24v47.5l-.88-.88v-47.82c0-.5.06-.96.19-1.39.13-.42.23-.84.31-1.26.08-.25.13-.46.13-.63.17-.67.31-1.33.44-1.98.12-.65.19-1.4.19-2.24,0-1.05-.1-1.91-.29-2.58-.19-.67-.35-1.18-.47-1.51l-.5-1.07h.88c.17.21.3.45.41.72.1.27.2.54.28.79.08.29.17.61.25.95h13.8l-.88.88h-12.73c0,.13,0,.24.03.35.02.1.03.22.03.35h11.97l-2.02,2.08,2.02,2.08h-12.22c-.08.25-.13.48-.13.69h13.04l.88.82Z"/>
      <path class="cls-1" d="M252.66,160.19h9.32c.04-.46.13-.92.25-1.39.08-.38.2-.78.35-1.2.15-.42.32-.8.54-1.13.29.46.52.99.69,1.57.17.59.29,1.16.38,1.7.08.63.13,1.26.13,1.89,0,.8-.07,1.56-.22,2.3-.15.74-.29,1.47-.44,2.21-.15.74-.28,1.45-.41,2.14-.13.69-.17,1.38-.13,2.05,0-.97-.11-1.93-.32-2.9h-10.14l.82-.88h9.13c-.04-.13-.06-.24-.06-.35s-.02-.22-.06-.35h-8.38l2.02-2.21-1.89-1.89h7.69v-.69h-8.38l-.88-.88ZM264.32,212.61c0,.63-.04,1.26-.13,1.89-.08.55-.21,1.12-.38,1.73-.17.61-.4,1.14-.69,1.61-.21-.29-.39-.66-.54-1.1-.15-.44-.26-.85-.35-1.23-.13-.46-.21-.92-.25-1.39h-9.32l.88-.88h8.38v-.69h-7.69l1.89-1.89-2.02-2.21h8.38c.04-.13.06-.25.06-.38s.02-.23.06-.32h-9.13l-.82-.88h10.14c.08-.46.16-.92.22-1.39.06-.46.09-.99.09-1.58-.04.71,0,1.42.13,2.11.13.69.26,1.4.41,2.11.15.71.29,1.45.44,2.21.15.76.22,1.51.22,2.27ZM265.32,208.57c.17.63.31,1.26.44,1.89.13.63.19,1.34.19,2.14,0,.97-.09,1.77-.28,2.42-.19.65-.35,1.12-.47,1.42l-.5,1.39h-.88c.29-.46.52-.99.69-1.58.17-.59.29-1.15.38-1.7.08-.63.13-1.28.13-1.95,0-.84-.06-1.61-.19-2.3s-.26-1.36-.41-2.02-.28-1.32-.41-2.02c-.13-.69-.19-1.48-.19-2.36v-33.58c0-.84.06-1.61.19-2.3.13-.69.26-1.37.41-2.02.15-.65.28-1.32.41-2.02.13-.69.19-1.48.19-2.36,0-.63-.04-1.26-.13-1.89-.08-.54-.21-1.11-.38-1.7-.17-.59-.4-1.11-.69-1.57h.69l.76,1.39c.13.29.27.76.44,1.39.17.63.25,1.43.25,2.39,0,.84-.06,1.57-.19,2.2-.13.63-.27,1.24-.44,1.83,0,.17-.04.38-.13.63-.08.46-.18.91-.28,1.35-.11.44-.18.91-.22,1.42v36.1c.04.55.12,1.04.22,1.48.1.44.2.87.28,1.29.08.34.13.55.13.63ZM270.17,208.57c.17.63.3,1.26.41,1.89.1.63.16,1.34.16,2.14,0,.97-.08,1.77-.25,2.42-.17.65-.32,1.12-.44,1.42l-.5,1.39h-4.09l.44-1.13c.17-.38.33-.9.5-1.58.17-.67.25-1.51.25-2.52,0-.84-.06-1.58-.19-2.24s-.27-1.29-.44-1.92c-.08-.34-.13-.54-.13-.63-.29-.92-.46-1.81-.5-2.65v-36.04c.04-.5.1-.96.19-1.39.08-.42.19-.84.32-1.26,0-.17.04-.38.13-.63.17-.67.31-1.33.44-1.98s.19-1.4.19-2.24c0-.97-.07-1.8-.22-2.49-.15-.69-.33-1.23-.54-1.61l-.63-1.07h4.1l.69,1.39c.17.29.33.76.47,1.39.15.63.22,1.43.22,2.39,0,.84-.05,1.57-.16,2.2-.11.63-.24,1.24-.41,1.83,0,.17-.04.38-.13.63-.13.46-.24.91-.35,1.35-.1.44-.16.91-.16,1.42v36.1c0,.55.05,1.04.16,1.48.1.44.22.87.35,1.29.08.34.13.55.13.63ZM271.43,167.44c-.21.97-.32,1.97-.32,3.02-.04,3.28-.06,6.15-.06,8.63v16.07c0,2.48.02,5.35.06,8.63,0,.59.03,1.13.09,1.64.06.5.14.99.22,1.45h11.53l-.82.88h-10.52c.08.25.13.48.13.69h9.76l-2.02,2.21,1.89,1.89h-9.07v.69h9.76l.88.88h-10.71c-.04.46-.13.92-.25,1.39-.08.38-.2.78-.35,1.2-.15.42-.33.8-.54,1.13h-.82l.38-1.13c.17-.38.34-.9.5-1.58.17-.67.25-1.51.25-2.52,0-.84-.05-1.58-.16-2.24-.11-.65-.24-1.29-.41-1.92-.04-.17-.11-.38-.19-.63-.08-.42-.18-.85-.28-1.29-.11-.44-.16-.89-.16-1.35v-36.04c0-.5.05-.96.16-1.39.1-.42.2-.84.28-1.26.04-.08.07-.19.09-.32.02-.13.05-.23.09-.31.17-.67.3-1.33.41-1.98.1-.65.16-1.4.16-2.24,0-.97-.07-1.8-.22-2.49-.15-.69-.33-1.23-.54-1.61l-.57-1.07h1.01c.21.34.39.71.54,1.13s.26.82.35,1.2c.13.46.21.92.25,1.39h10.71l-.88.88h-9.76v.69h9.07l-1.89,1.89,2.02,2.21h-9.76c0,.13-.01.24-.03.35-.02.11-.05.22-.09.35h10.52l.82.88h-11.53Z"/>
    </g>
    <g>
      <path class="cls-1" d="M50.93,20.41c2.14.76,4.1,1.83,5.89,3.21,1.78,1.39,3.31,2.98,4.57,4.79,1.26,1.81,2.24,3.78,2.93,5.92.69,2.14,1.04,4.37,1.04,6.68,0,3.02-.58,5.88-1.73,8.57-1.16,2.69-2.72,5.02-4.69,6.99-1.97,1.97-4.29,3.54-6.96,4.69-2.67,1.16-5.51,1.73-8.54,1.73h-12.35c-1.89,0-3.69-.32-5.39-.95-1.7-.63-3.23-1.5-4.6-2.61-1.37-1.11-2.53-2.44-3.5-3.97-.97-1.53-1.64-3.18-2.02-4.95H4l.88-.88h10.46v-.69H5.57l2.02-2.02-2.02-2.08h9.83v-.69H4.88l-.88-.88h11.65c.42-1.72,1.11-3.33,2.08-4.82.97-1.49,2.13-2.77,3.5-3.84,1.36-1.07,2.89-1.91,4.57-2.52,1.68-.61,3.44-.91,5.29-.91,1.34,0,2.6.25,3.78.76,1.18.5,2.21,1.2,3.09,2.08s1.58,1.91,2.08,3.09c.5,1.18.76,2.42.76,3.72s-.25,2.6-.76,3.78c-.5,1.18-1.2,2.21-2.08,3.09-.88.88-1.91,1.58-3.09,2.08-1.18.5-2.44.76-3.78.76h-7.88c.67,1.55,1.71,2.8,3.12,3.75,1.41.95,2.99,1.42,4.76,1.42h12.35c2.02,0,3.92-.39,5.7-1.17,1.78-.78,3.34-1.83,4.66-3.15,1.32-1.32,2.37-2.88,3.15-4.66.78-1.78,1.17-3.69,1.17-5.7,0-1.51-.23-2.99-.69-4.44-.46-1.45-1.12-2.77-1.98-3.97-.86-1.2-1.88-2.27-3.06-3.21-1.18-.95-2.48-1.67-3.91-2.17l-17.89-6.36h-.06c-1.93-.76-3.46-1.97-4.6-3.65-1.13-1.68-1.7-3.55-1.7-5.61,0-1.39.26-2.68.79-3.88.52-1.2,1.24-2.24,2.14-3.12.9-.88,1.95-1.58,3.15-2.11,1.2-.52,2.49-.79,3.87-.79h14.93c1.09,0,2.13.21,3.12.63.99.42,1.85,1,2.58,1.73.73.74,1.31,1.59,1.73,2.55.42.97.63,2.02.63,3.15s-.21,2.18-.63,3.15c-.42.97-1,1.82-1.73,2.55s-1.6,1.31-2.58,1.73c-.99.42-2.03.63-3.12.63h-3.34l.88-.88h2.46c1.01,0,1.94-.19,2.8-.57.86-.38,1.62-.89,2.27-1.54.65-.65,1.17-1.41,1.54-2.27.38-.86.57-1.8.57-2.8s-.19-1.94-.57-2.8c-.38-.86-.89-1.62-1.54-2.27-.65-.65-1.41-1.17-2.27-1.54-.86-.38-1.8-.57-2.8-.57h-14.93c-1.26,0-2.44.23-3.53.69-1.09.46-2.05,1.1-2.87,1.92-.82.82-1.47,1.77-1.95,2.87-.48,1.09-.72,2.27-.72,3.53,0,1.89.51,3.59,1.54,5.1,1.03,1.51,2.43,2.63,4.19,3.34h.06l17.83,6.36c1.55.55,2.96,1.31,4.22,2.3,1.26.99,2.34,2.12,3.24,3.4.9,1.28,1.6,2.68,2.08,4.19.48,1.51.72,3.09.72,4.72,0,2.14-.41,4.16-1.23,6.05-.82,1.89-1.93,3.54-3.34,4.95-1.41,1.41-3.06,2.52-4.95,3.34-1.89.82-3.91,1.23-6.05,1.23h-12.35c-1.89,0-3.6-.51-5.13-1.54-1.53-1.03-2.72-2.4-3.56-4.13,0-.04-.13-.4-.38-1.07s-.38-1.64-.38-2.9c0-.59.04-1.11.13-1.58.08-.46.19-.88.31-1.26.17-.42.34-.82.5-1.2.8-1.64,1.95-2.94,3.46-3.91,1.51-.97,3.19-1.45,5.04-1.45.92,0,1.71.33,2.36.98.65.65.98,1.42.98,2.3s-.33,1.71-.98,2.36c-.65.65-1.44.98-2.36.98h-8.13v.69h8.13c1.09,0,2.04-.4,2.83-1.2.8-.8,1.2-1.74,1.2-2.83s-.4-2.03-1.2-2.8c-.8-.78-1.74-1.17-2.83-1.17-1.97,0-3.78.51-5.42,1.54-1.64,1.03-2.88,2.43-3.72,4.19-.04.04-.22.47-.54,1.29-.31.82-.47,1.84-.47,3.06,0,1.34.13,2.37.38,3.09.25.71.4,1.11.44,1.2.84,1.85,2.1,3.32,3.78,4.41,1.68,1.09,3.53,1.64,5.54,1.64h12.35c2.23,0,4.33-.42,6.3-1.26,1.97-.84,3.7-1.99,5.17-3.46s2.64-3.19,3.5-5.17c.86-1.97,1.29-4.1,1.29-6.36,0-1.68-.25-3.32-.76-4.91-.5-1.6-1.23-3.07-2.17-4.41-.95-1.34-2.08-2.52-3.4-3.53-1.32-1.01-2.78-1.81-4.38-2.39l-17.83-6.36h-.06c-1.6-.63-2.88-1.65-3.84-3.05-.97-1.41-1.45-2.99-1.45-4.76,0-1.13.22-2.21.66-3.21s1.04-1.89,1.8-2.65c.76-.76,1.65-1.35,2.68-1.79,1.03-.44,2.11-.66,3.24-.66h14.93c.88,0,1.72.17,2.52.5.8.34,1.49.8,2.08,1.39.59.59,1.05,1.28,1.39,2.08.34.8.5,1.64.5,2.52s-.17,1.72-.5,2.52c-.34.8-.8,1.49-1.39,2.08-.59.59-1.28,1.05-2.08,1.39-.8.34-1.64.5-2.52.5h-1.76l2.08-2.08-2.08-2.02h1.76c.63,0,1.18-.23,1.64-.69.46-.46.69-1.03.69-1.7s-.23-1.24-.69-1.7c-.46-.46-1.01-.69-1.64-.69h-14.93c-1.18,0-2.17.41-2.99,1.23-.82.82-1.23,1.82-1.23,2.99,0,.84.23,1.62.69,2.33.46.71,1.09,1.24,1.89,1.58v.06l17.83,6.3c2.02.71,3.85,1.71,5.51,2.99,1.66,1.28,3.07,2.76,4.22,4.44,1.15,1.68,2.06,3.52,2.71,5.51.65,2,.98,4.06.98,6.21,0,2.81-.54,5.46-1.61,7.94-1.07,2.48-2.53,4.64-4.38,6.49-1.85,1.85-4,3.31-6.46,4.38-2.46,1.07-5.09,1.61-7.91,1.61h-12.35c-3.36,0-6.36-1.07-9.01-3.21-1.26-1.01-2.3-2.21-3.12-3.59-.82-1.39-1.44-2.86-1.86-4.41,0-.04-.05-.35-.16-.91-.1-.57-.16-1.4-.16-2.49,0-.25,0-.56.03-.91.02-.36.07-.7.16-1.04.04-.38.1-.78.19-1.2.38-1.6,1.01-3.07,1.89-4.41.88-1.34,1.94-2.5,3.18-3.46,1.24-.97,2.61-1.71,4.13-2.24,1.51-.52,3.09-.79,4.72-.79,1.13,0,2.19.21,3.18.63.99.42,1.85,1,2.58,1.73.73.74,1.31,1.59,1.73,2.55.42.97.63,2.02.63,3.15s-.21,2.19-.63,3.18c-.42.99-1,1.85-1.73,2.58s-1.6,1.31-2.58,1.73c-.99.42-2.05.63-3.18.63h-8.32v.69h8.32c1.22,0,2.36-.23,3.43-.69,1.07-.46,2.01-1.09,2.8-1.89.8-.8,1.43-1.73,1.89-2.8.46-1.07.69-2.21.69-3.43s-.23-2.36-.69-3.43c-.46-1.07-1.09-2-1.89-2.77-.8-.78-1.73-1.4-2.8-1.86-1.07-.46-2.22-.69-3.43-.69-1.72,0-3.37.27-4.95.82-1.58.55-3.01,1.32-4.32,2.33-1.3,1.01-2.4,2.22-3.31,3.62-.9,1.41-1.56,2.95-1.98,4.63-.04.08-.13.51-.25,1.29s-.19,1.46-.19,2.05c0,1.09.05,1.93.16,2.52.1.59.18.92.22,1.01.34,1.64.95,3.18,1.86,4.63.9,1.45,2.01,2.72,3.31,3.81,1.34,1.09,2.82,1.92,4.44,2.49,1.62.57,3.29.85,5.01.85h12.35c2.9,0,5.63-.56,8.19-1.67,2.56-1.11,4.79-2.62,6.68-4.54,1.89-1.91,3.39-4.15,4.5-6.71,1.11-2.56,1.67-5.29,1.67-8.19,0-2.18-.34-4.32-1.01-6.39-.67-2.08-1.61-3.98-2.8-5.7-1.2-1.72-2.66-3.25-4.38-4.57-1.72-1.32-3.61-2.36-5.67-3.12l-17.83-6.36c-.67-.29-1.2-.73-1.58-1.32-.38-.59-.57-1.24-.57-1.95,0-.97.35-1.8,1.04-2.49.69-.69,1.52-1.04,2.49-1.04h14.93c.46,0,.85.17,1.17.5.31.34.47.74.47,1.2s-.16.86-.47,1.2c-.31.34-.7.5-1.17.5h-2.46l-.88-.88h3.34c.5,0,.76-.27.76-.82s-.25-.82-.76-.82h-14.93c-.76,0-1.39.26-1.89.79-.5.53-.76,1.14-.76,1.86,0,.55.14,1.05.41,1.51.27.46.66.78,1.17.95l17.83,6.36ZM31.09,38.43c-1.72,0-3.27.44-4.63,1.32-1.37.88-2.4,2.06-3.12,3.53h7.75c.71,0,1.3-.23,1.76-.69.46-.46.69-1.05.69-1.76,0-.67-.23-1.24-.69-1.7-.46-.46-1.05-.69-1.76-.69Z"/>
      <path class="cls-1" d="M138.19,62.05l.88.95c-1.6,0-3.12-.24-4.57-.72-1.45-.48-2.77-1.14-3.97-1.98-1.2-.84-2.25-1.85-3.15-3.02-.9-1.17-1.61-2.46-2.11-3.84-2.52,2.94-5.54,5.27-9.07,6.99-3.53,1.72-7.37,2.58-11.53,2.58-3.74,0-7.23-.7-10.49-2.11-3.26-1.41-6.11-3.34-8.57-5.8-2.46-2.46-4.39-5.31-5.8-8.57-1.41-3.25-2.11-6.75-2.11-10.49V15.12c0-1.85.36-3.59,1.07-5.23.71-1.64,1.68-3.07,2.9-4.28,1.22-1.22,2.65-2.18,4.28-2.9,1.64-.71,3.38-1.07,5.23-1.07s3.59.36,5.23,1.07c1.64.71,3.07,1.68,4.28,2.9,1.22,1.22,2.18,2.65,2.9,4.28.71,1.64,1.07,3.38,1.07,5.23s-.36,3.6-1.07,5.26c-.71,1.66-1.68,3.1-2.9,4.32-1.22,1.22-2.65,2.18-4.28,2.9-1.64.71-3.38,1.07-5.23,1.07h-6.24v7.37c0,2.73.51,5.28,1.54,7.65,1.03,2.37,2.45,4.45,4.25,6.24,1.81,1.79,3.9,3.19,6.27,4.22,2.37,1.03,4.92,1.54,7.65,1.54s5.23-.51,7.62-1.54,4.48-2.44,6.27-4.22c1.78-1.79,3.19-3.86,4.22-6.24,1.03-2.37,1.54-4.92,1.54-7.65V15.5c0-.88.06-1.66.19-2.33s.25-1.32.38-1.95.25-1.29.38-1.98c.13-.69.19-1.48.19-2.36,0-.67-.04-1.32-.13-1.95-.08-.55-.2-1.11-.35-1.7-.15-.59-.37-1.11-.66-1.58h.82l.57,1.39c.17.29.33.76.47,1.39.15.63.22,1.45.22,2.46,0,.8-.05,1.51-.16,2.14-.11.63-.24,1.26-.41,1.89-.04.08-.06.18-.06.28s-.02.22-.06.35c-.08.42-.18.85-.28,1.29-.11.44-.18.94-.22,1.48v21.74c0,2.86-.54,5.52-1.61,8-1.07,2.48-2.54,4.65-4.41,6.52-1.87,1.87-4.05,3.34-6.55,4.41-2.5,1.07-5.16,1.61-7.97,1.61s-5.53-.54-8.03-1.61c-2.5-1.07-4.67-2.54-6.52-4.41-1.85-1.87-3.32-4.04-4.41-6.52-1.09-2.48-1.64-5.14-1.64-8V15.12c0-.97.19-1.88.57-2.74.38-.86.89-1.61,1.54-2.24.65-.63,1.41-1.13,2.27-1.51.86-.38,1.77-.57,2.74-.57s1.88.19,2.74.57c.86.38,1.62.88,2.27,1.51.65.63,1.17,1.38,1.54,2.24.38.86.57,1.78.57,2.74s-.19,1.94-.57,2.8c-.38.86-.89,1.61-1.54,2.24-.65.63-1.41,1.13-2.27,1.51-.86.38-1.77.57-2.74.57h-6.17v.69h6.17c1.05,0,2.06-.2,3.02-.6.97-.4,1.8-.96,2.49-1.67.69-.71,1.25-1.54,1.67-2.49.42-.94.63-1.96.63-3.05s-.21-2.05-.63-2.99c-.42-.94-.98-1.77-1.67-2.49-.69-.71-1.52-1.27-2.49-1.67-.97-.4-1.97-.6-3.02-.6s-2.11.2-3.06.6c-.94.4-1.76.96-2.46,1.67-.69.71-1.25,1.54-1.67,2.49-.42.95-.63,1.94-.63,2.99v20.92c0,2.94.56,5.7,1.67,8.28,1.11,2.58,2.64,4.83,4.57,6.74,1.93,1.91,4.19,3.42,6.77,4.54,2.58,1.11,5.34,1.67,8.28,1.67s5.69-.56,8.25-1.67c2.56-1.11,4.81-2.62,6.74-4.54,1.93-1.91,3.45-4.16,4.57-6.74,1.11-2.58,1.67-5.34,1.67-8.28V14.3c0-.46.05-.91.16-1.35.1-.44.22-.87.35-1.29,0-.17.04-.38.13-.63.17-.63.3-1.27.41-1.92.1-.65.16-1.4.16-2.24,0-1.01-.07-1.85-.22-2.52-.15-.67-.33-1.22-.54-1.64l-.44-1.07h4.03l.63,1.39c.13.29.26.76.41,1.39.15.63.22,1.45.22,2.46,0,.8-.05,1.51-.16,2.14-.11.63-.22,1.26-.35,1.89-.08.25-.15.46-.19.63-.08.42-.17.85-.25,1.29-.08.44-.15.94-.19,1.48v21.74c0,3.49-.67,6.77-2.02,9.86-1.34,3.09-3.16,5.79-5.45,8.1-2.29,2.31-4.98,4.13-8.06,5.45-3.09,1.32-6.37,1.98-9.86,1.98s-6.77-.66-9.86-1.98-5.79-3.14-8.1-5.45c-2.31-2.31-4.13-5.01-5.45-8.1-1.32-3.09-1.98-6.37-1.98-9.86V15.12c0-1.64.31-3.18.94-4.63s1.48-2.71,2.55-3.78c1.07-1.07,2.33-1.92,3.78-2.55,1.45-.63,2.99-.95,4.63-.95s3.18.31,4.63.95c1.45.63,2.71,1.48,3.78,2.55,1.07,1.07,1.92,2.33,2.55,3.78.63,1.45.95,2.99.95,4.63s-.31,3.19-.95,4.66c-.63,1.47-1.48,2.74-2.55,3.81-1.07,1.07-2.33,1.92-3.78,2.55-1.45.63-2.99.95-4.63.95h-6.17v.69h6.17c1.76,0,3.41-.34,4.95-1.01,1.53-.67,2.87-1.57,4-2.71,1.13-1.13,2.03-2.47,2.68-4,.65-1.53.98-3.18.98-4.95s-.33-3.35-.98-4.88c-.65-1.53-1.54-2.87-2.68-4-1.13-1.13-2.47-2.04-4-2.71-1.53-.67-3.18-1.01-4.95-1.01s-3.35.34-4.88,1.01c-1.53.67-2.87,1.58-4,2.71-1.13,1.13-2.04,2.47-2.71,4-.67,1.53-1.01,3.16-1.01,4.88v20.92c0,3.61.68,6.99,2.05,10.14,1.36,3.15,3.23,5.91,5.61,8.28,2.37,2.37,5.13,4.24,8.28,5.61,3.15,1.37,6.53,2.05,10.14,2.05s6.94-.68,10.11-2.05c3.17-1.36,5.94-3.23,8.32-5.61,2.37-2.37,4.24-5.13,5.61-8.28,1.36-3.15,2.05-6.53,2.05-10.14V14.3c0-.46.05-.91.16-1.35.1-.44.2-.87.28-1.29.08-.25.13-.46.13-.63.17-.63.3-1.27.41-1.92.1-.65.16-1.4.16-2.24,0-1.01-.07-1.85-.22-2.52-.15-.67-.31-1.22-.47-1.64l-.5-1.07h.88c.29.46.52.99.69,1.58.17.59.29,1.18.38,1.76.08.67.13,1.34.13,2.02,0,.88-.06,1.67-.19,2.36-.13.69-.26,1.35-.41,1.98-.15.63-.28,1.28-.41,1.95s-.19,1.45-.19,2.33l.06,32.63c0,1.05.2,2.03.6,2.93.4.9.93,1.69,1.61,2.36.67.67,1.46,1.2,2.36,1.58.9.38,1.86.57,2.87.57l-.88.88-.31-.06c-1.01-.08-1.95-.37-2.83-.85-.88-.48-1.64-1.1-2.27-1.86s-1.12-1.61-1.48-2.55c-.36-.94-.54-1.94-.54-2.99v-5.42l-.69,2.33v3.09c0,1.09.19,2.14.57,3.15.38,1.01.9,1.9,1.58,2.68.67.78,1.46,1.44,2.36,1.98.9.55,1.9.9,2.99,1.07l-2.14,2.08,2.02,2.08c-2.65-.34-4.96-1.35-6.93-3.06-1.97-1.7-3.32-3.81-4.03-6.33l-.57.69c.63,1.89,1.62,3.57,2.96,5.04,1.18,1.26,2.52,2.29,4.03,3.09,1.51.8,3.15,1.24,4.91,1.32h.38ZM84.95,21.36h6.24c1.76,0,3.24-.6,4.44-1.79,1.2-1.2,1.8-2.68,1.8-4.44s-.6-3.18-1.8-4.38c-1.2-1.2-2.68-1.8-4.44-1.8-.84,0-1.64.16-2.39.47-.76.32-1.42.76-1.98,1.32s-1.02,1.23-1.35,1.98c-.34.76-.5,1.55-.5,2.39v6.24ZM123.64,15.5c0-.84-.06-1.6-.19-2.27-.13-.67-.25-1.34-.38-2.02s-.25-1.35-.38-2.05c-.13-.69-.19-1.46-.19-2.3,0-.67.04-1.32.13-1.95.08-.55.2-1.11.35-1.7.15-.59.37-1.11.66-1.58.29.5.52,1.05.69,1.64.17.59.29,1.16.38,1.7.08.63.13,1.26.13,1.89,0,.76-.07,1.51-.22,2.27-.15.76-.29,1.49-.44,2.21-.15.71-.28,1.42-.41,2.11-.13.69-.17,1.38-.13,2.05Z"/>
      <path class="cls-1" d="M197.47,0l.63.69-50.27,57.65-.63-.57L190.92,7.5h-24.38c-1.55,0-2.87.54-3.94,1.61-1.07,1.07-1.61,2.38-1.61,3.94s.54,2.8,1.61,3.87c1.07,1.07,2.38,1.61,3.94,1.61h3.4l-.95.95h-2.46c-.88,0-1.72-.17-2.52-.5-.8-.34-1.48-.8-2.05-1.39s-1.02-1.27-1.35-2.05c-.34-.78-.5-1.61-.5-2.49s.17-1.71.5-2.49c.34-.78.79-1.46,1.35-2.05.57-.59,1.25-1.05,2.05-1.39.8-.34,1.64-.5,2.52-.5h25.2l.63-.76h-25.83c-1.01,0-1.94.19-2.8.57-.86.38-1.62.89-2.27,1.54-.65.65-1.17,1.41-1.54,2.27-.38.86-.57,1.8-.57,2.8s.19,1.88.57,2.74c.38.86.89,1.62,1.54,2.27.65.65,1.41,1.17,2.27,1.54.86.38,1.8.57,2.8.57h1.76l-2.08,2.14,2.08,2.08h-1.76c-1.6,0-3.08-.29-4.44-.88-1.37-.59-2.57-1.4-3.62-2.43-1.05-1.03-1.87-2.24-2.46-3.62-.59-1.39-.88-2.86-.88-4.41s.29-3.02.88-4.41c.59-1.39,1.41-2.6,2.46-3.65,1.05-1.05,2.26-1.87,3.62-2.46,1.36-.59,2.84-.88,4.44-.88h29.48l.63-.69h-30.11c-1.68,0-3.26.32-4.72.95-1.47.63-2.75,1.49-3.84,2.58s-1.95,2.37-2.58,3.84c-.63,1.47-.94,3.05-.94,4.73s.31,3.25.94,4.72c.63,1.47,1.49,2.75,2.58,3.84,1.09,1.09,2.37,1.95,3.84,2.58,1.47.63,3.04.95,4.72.95h2.46l.95.88h-3.4c-1.81,0-3.5-.34-5.07-1.01-1.58-.67-2.95-1.6-4.13-2.77-1.18-1.17-2.11-2.55-2.8-4.13-.69-1.58-1.04-3.27-1.04-5.07s.35-3.5,1.04-5.07c.69-1.58,1.63-2.95,2.8-4.13,1.18-1.18,2.55-2.11,4.13-2.8,1.58-.69,3.27-1.04,5.07-1.04h30.93ZM198.61,1.2l3.02,3.02-50.27,57.65-3.02-3.02L198.61,1.2ZM202.13,4.72l.63.57-43.72,50.27,34.84-.06c1.26,0,2.43-.23,3.53-.69,1.09-.46,2.05-1.1,2.87-1.92.82-.82,1.46-1.77,1.92-2.87.46-1.09.69-2.27.69-3.53s-.23-2.37-.69-3.47c-.46-1.09-1.1-2.05-1.92-2.87-.82-.82-1.77-1.47-2.87-1.95-1.09-.48-2.27-.72-3.53-.72s-2.44.24-3.53.72c-1.09.48-2.05,1.13-2.87,1.95s-1.46,1.78-1.92,2.87c-.46,1.09-.69,2.25-.69,3.47v4.03l-.94-.88v-3.15c0-1.34.26-2.62.79-3.81.52-1.2,1.24-2.25,2.14-3.15.9-.9,1.95-1.62,3.15-2.14,1.2-.53,2.49-.79,3.87-.79s2.68.26,3.87.79,2.24,1.24,3.12,2.14c.88.9,1.58,1.95,2.11,3.15.53,1.2.79,2.47.79,3.81s-.26,2.68-.79,3.87-1.23,2.25-2.11,3.15c-.88.9-1.92,1.62-3.12,2.14-1.2.53-2.49.79-3.87.79h-35.66l-.63.69h36.29c1.47,0,2.84-.28,4.13-.85,1.28-.57,2.4-1.33,3.37-2.3.96-.97,1.73-2.09,2.3-3.37.57-1.28.85-2.66.85-4.13s-.28-2.85-.85-4.13c-.57-1.28-1.33-2.4-2.3-3.37-.97-.97-2.09-1.72-3.37-2.27-1.28-.54-2.66-.82-4.13-.82s-2.85.27-4.13.82c-1.28.55-2.4,1.3-3.37,2.27s-1.73,2.09-2.3,3.37c-.57,1.28-.85,2.66-.85,4.13v2.46l-2.14-2.14-2.08,2.08v-2.39c0-2.06.39-3.99,1.17-5.8.78-1.81,1.84-3.38,3.18-4.73s2.92-2.4,4.73-3.18c1.81-.78,3.74-1.17,5.8-1.17s3.99.39,5.8,1.17c1.8.78,3.38,1.84,4.72,3.18,1.34,1.34,2.4,2.92,3.18,4.73s1.17,3.74,1.17,5.8-.39,3.99-1.17,5.8-1.84,3.38-3.18,4.72c-1.34,1.34-2.92,2.41-4.72,3.18-1.81.78-3.74,1.17-5.8,1.17l-39.94.06-.63.69h40.57c2.14,0,4.16-.41,6.05-1.23,1.89-.82,3.54-1.93,4.95-3.34s2.52-3.06,3.34-4.98c.82-1.91,1.23-3.94,1.23-6.08s-.41-4.16-1.23-6.05c-.82-1.89-1.93-3.54-3.34-4.95-1.41-1.41-3.05-2.52-4.95-3.34s-3.91-1.23-6.05-1.23-4.16.41-6.05,1.23c-1.89.82-3.54,1.93-4.95,3.34-1.41,1.41-2.52,3.06-3.34,4.95-.82,1.89-1.23,3.91-1.23,6.05v3.15l-.95.88v-4.03c0-2.27.43-4.4,1.29-6.39.86-2,2.05-3.74,3.56-5.23,1.51-1.49,3.27-2.67,5.26-3.53,1.99-.86,4.13-1.29,6.39-1.29s4.4.43,6.39,1.29c2,.86,3.75,2.04,5.26,3.53,1.51,1.49,2.7,3.23,3.56,5.23s1.29,4.13,1.29,6.39-.43,4.41-1.29,6.43c-.86,2.02-2.05,3.77-3.56,5.26s-3.27,2.67-5.26,3.53c-1.99.86-4.12,1.29-6.39,1.29h-41.39l-.63-.63L202.13,4.72Z"/>
      <path class="cls-1" d="M228.22,44.29c.8,0,1.56.07,2.3.22.73.15,1.47.29,2.21.44.73.15,1.45.28,2.14.41.69.13,1.38.19,2.05.19-.84,0-1.59.05-2.24.16-.65.11-1.29.24-1.92.41l-9.45,18.84-.44-1.07,8.76-17.51c-.17.04-.46.1-.88.19l-8.19,16.44-1.13-2.83-2.46.82,7.18-14.43c-.17,0-.42-.04-.76-.13l-7.37,14.87-1.2.44,7.75-15.5c-.21-.08-.4-.17-.57-.25-.17-.08-.34-.16-.5-.22-.17-.06-.32-.14-.44-.22.46-.34.99-.58,1.58-.72.59-.15,1.15-.26,1.7-.35.63-.08,1.26-.15,1.89-.19ZM228.22,37.55c-.97,0-1.79.08-2.49.25-.69.17-1.23.34-1.61.5l-1.07.5v-.95c.42-.29.92-.52,1.51-.69.59-.17,1.15-.29,1.7-.38.63-.08,1.28-.13,1.95-.13h.57c.17,0,.36.02.57.06L246.74,1.95h.94l-17.39,34.84c.08.04.19.06.32.06s.25.02.38.06L248.5,1.95h4.6l-17.95,35.85c.13,0,.25.01.38.03.13.02.25.03.38.03L253.86,1.95h1.01l-.13.19.13-.19,17.96,35.97h9.51l-.88.88h-45.74c-.5,0-.97-.06-1.39-.19-.42-.13-.84-.23-1.26-.32-.17-.04-.38-.1-.63-.19-.67-.13-1.33-.25-1.99-.38s-1.4-.19-2.24-.19ZM228.22,42.02c-.97,0-1.79.08-2.49.25-.69.17-1.23.34-1.61.5l-1.07.5v-3.72l1.32-.63c.34-.13.82-.27,1.45-.44s1.43-.25,2.39-.25c.84,0,1.56.05,2.17.16.61.11,1.23.24,1.86.41.08.04.19.07.32.09.13.02.23.05.31.09.46.08.91.19,1.35.31.44.13.91.19,1.42.19h45.11l-1.89,1.89,1.89,1.89h-45.04c-.5,0-.97-.06-1.39-.19-.42-.13-.84-.23-1.26-.32-.34-.08-.55-.13-.63-.13-.67-.17-1.33-.31-1.99-.44s-1.4-.19-2.24-.19ZM275.34,44.86h-.82l8.13,16.13-2.52-.82-1.13,2.77-9.07-18.08h-.76l9.51,18.96-.44,1.13-10.08-20.1h-31.25c-.84,0-1.61-.06-2.3-.19-.69-.13-1.38-.27-2.05-.44-.67-.17-1.35-.31-2.05-.44s-1.46-.19-2.3-.19c-.67.04-1.32.11-1.95.19-.55.08-1.1.2-1.67.35-.57.15-1.08.39-1.54.72v-.82l1.32-.63c.34-.13.82-.27,1.45-.44.63-.17,1.43-.25,2.39-.25.84,0,1.56.06,2.17.19.61.13,1.23.25,1.86.38.17.04.38.11.63.19.46.08.91.18,1.35.28.44.11.91.18,1.42.22h45.8l.88.88h-6.05l8.44,16.88-1.13-.44-8.25-16.44ZM236.85,37.86h.06c3.4.04,6.44.06,9.1.06h18.68l-13.92-27.85-13.92,27.78ZM266.46,37.93l-14.8-29.61-.38.76,14.43,28.85h.76ZM254.36,2.96l-.38.76,17.07,34.21h.82L254.36,2.96Z"/>
      <path class="cls-1" d="M343.07,61.68l-.69.5-36.22-46.75v47.57l-.88-.88V14.3l-.69-.88v48.01l-2.08-2.08-2.02,2.08V8.06l-.69-.88v54.94l-.88.88V6.05l.69-.57,43.47,56.2ZM300.16,5.1l3.28-2.58,43.47,56.2-3.28,2.52-43.47-56.13ZM304,2.14l.63-.57,36.22,46.81V1.58l.88.69v47.25l.69.88V2.83l2.08,1.64,2.08-1.64v52.92l.69.88V2.33l.88-.76v56.2h-.06l-.63.5L304,2.14Z"/>
      <path class="cls-1" d="M405.25,61.68l-.69.5-36.22-46.75v47.57l-.88-.88V14.3l-.69-.88v48.01l-2.08-2.08-2.02,2.08V8.06l-.69-.88v54.94l-.88.88V6.05l.69-.57,43.47,56.2ZM362.34,5.1l3.28-2.58,43.47,56.2-3.28,2.52-43.47-56.13ZM366.19,2.14l.63-.57,36.22,46.81V1.58l.88.69v47.25l.69.88V2.83l2.08,1.64,2.08-1.64v52.92l.69.88V2.33l.88-.76v56.2h-.06l-.63.5L366.19,2.14Z"/>
      <path class="cls-1" d="M428.49,27.97c-1.01,0-1.86.08-2.55.25-.69.17-1.23.34-1.61.5l-1.07.5v-.88c.29-.21.64-.39,1.04-.54.4-.15.79-.26,1.17-.35.46-.13.92-.21,1.39-.25V8.57l2.83-2.71-2.21,2.77v18.52c.13,0,.24,0,.35-.03.1-.02.22-.03.35-.03V8.88l5.04-6.49.76-.76h31l-.88.88h-30.11v.69l-1.39,5.54v18.9c.13.04.36.1.69.19V8.82l.69-3.09v-2.52h29.42l-1.89,1.89,1.89,1.89h-29.42v.69h30.11l.88.88h-31v19.4c.46.08.96.17,1.48.25.52.08,1.08.13,1.67.13h19.28l-.94.88h-19.53c-.5,0-.97-.06-1.39-.19-.42-.13-.84-.23-1.26-.32-.25-.08-.46-.13-.63-.13-.63-.17-1.27-.31-1.92-.44-.65-.13-1.4-.19-2.24-.19ZM428.49,32.44c-1.01,0-1.86.08-2.55.25-.69.17-1.23.34-1.61.5l-1.07.5v-3.72l1.39-.63c.29-.13.76-.27,1.39-.44.63-.17,1.45-.25,2.46-.25.8,0,1.51.06,2.14.19s1.24.25,1.83.38c.17.04.38.11.63.19.46.08.91.19,1.35.31.44.13.91.19,1.42.19h18.9l-1.83,1.89,1.89,1.89h-18.9c-.5,0-.97-.05-1.39-.16-.42-.1-.84-.22-1.26-.35-.08-.04-.19-.06-.31-.06s-.23-.02-.32-.06c-.63-.17-1.27-.32-1.92-.44-.65-.13-1.4-.19-2.24-.19ZM437.12,35.28c-.84,0-1.61-.06-2.3-.19s-1.37-.27-2.02-.44c-.65-.17-1.32-.31-2.02-.44-.69-.13-1.46-.19-2.3-.19-.67.04-1.32.11-1.95.19-.55.08-1.11.2-1.7.35-.59.15-1.11.39-1.58.72v-.76l1.39-.69c.29-.13.76-.27,1.39-.44.63-.17,1.45-.25,2.46-.25.8,0,1.51.06,2.14.19s1.24.27,1.83.44c.13,0,.24.01.35.03.1.02.22.05.35.09.42.08.85.18,1.29.28.44.1.91.18,1.42.22h19.66l.88.88h-19.28ZM464.09,62.12l.88.88h-31l-.76-.76-5.04-6.49v-18.58h-.69v18.84l2.21,2.77-2.83-2.77v-18.9c-.42-.04-.86-.13-1.32-.25-.38-.08-.78-.2-1.2-.35-.42-.15-.78-.32-1.07-.54.46-.34,1-.58,1.61-.72.61-.15,1.19-.26,1.73-.35.63-.08,1.26-.15,1.89-.19.76,0,1.51.07,2.27.22s1.49.3,2.21.47c.71.17,1.42.32,2.11.44s1.38.17,2.05.13c-1.18,0-2.23.13-3.15.38v19.72h31l-.88.88h-30.11v.69h29.42l-1.89,1.89,1.89,1.89h-29.42v-2.65l-.69-2.96v-19.34c-.34.08-.57.15-.69.19v19.21l1.39,6.24h30.11Z"/>
    </g>
  </g>
  <g>
    <rect class="cls-1" x="132.72" y="105.34" width="70.81" height="8.13" rx="4" ry="4"/>
    <rect class="cls-1" x="0" y="105.34" width="70.81" height="8.13" rx="4" ry="4"/>
    <rect class="cls-1" x="265.44" y="105.34" width="70.81" height="8.13" rx="4" ry="4"/>
    <rect class="cls-1" x="398.16" y="105.34" width="70.81" height="8.13" rx="4" ry="4"/>
  </g>
</svg>